<svg width="85" height="30" viewBox="0 0 85 30" fill="none" xmlns="http://www.w3.org/2000/svg">
<g filter="url(#filter0_d_2_6)">
<path d="M6.52667 20.9466L14.9212 3.66409C14.9212 3.66409 7.57596 7.00909 6.00199 10.9116C4.42802 14.8141 4.9271 18.4038 6.00201 20.9466" stroke="#499A18" stroke-linecap="round" stroke-linejoin="round"/>
<path d="M5.99646 20.9925C5.99646 20.9925 31.7102 -8.60087 23.3157 4.2216C14.9212 17.0441 24.1707 6.63145 19.4973 14.0678C14.824 21.5041 5.99646 20.9925 5.99646 20.9925Z" stroke="#499A18" stroke-linejoin="round"/>
<path d="M30.9264 9.84138C32.2811 9.84138 33.2837 10.0654 33.9344 10.5134C34.5957 10.9507 34.9264 11.7294 34.9264 12.8494C34.9264 13.9694 34.6011 14.86 33.9504 15.5214C33.2997 16.172 32.2491 16.4974 30.7984 16.4974H29.4544L29.4064 19.9694L30.6544 20.0814C30.6544 20.38 30.5637 20.7 30.3824 21.0414H26.7824L26.7344 20.4974C27.1824 20.3267 27.6411 20.1987 28.1104 20.1134C28.0464 15.9534 27.9931 12.86 27.9504 10.8334C27.6624 10.78 27.1931 10.652 26.5424 10.4494L26.6224 9.84138H30.9264ZM30.6384 15.4574C31.5557 15.4467 32.2544 15.2174 32.7344 14.7694C33.2144 14.3107 33.4544 13.708 33.4544 12.9614C33.4544 12.2147 33.2197 11.6974 32.7504 11.4094C32.2811 11.1107 31.5291 10.9614 30.4944 10.9614C30.3024 10.9614 29.9771 10.9667 29.5184 10.9774C29.5184 10.988 29.5024 12.4867 29.4704 15.4734L30.6384 15.4574ZM37.9855 9.15338C38.3162 9.15338 38.5508 9.16405 38.6895 9.18538C38.6895 9.55871 38.6202 9.98538 38.4815 10.4654C38.3855 16.7587 38.3375 19.9214 38.3375 19.9534L39.6815 20.0814C39.6815 20.38 39.5908 20.7 39.4095 21.0414H35.7295L35.6815 20.4814C36.1722 20.3107 36.6522 20.1827 37.1215 20.0974L36.9615 10.4174C36.3748 10.3854 35.9055 10.3214 35.5535 10.2254L35.6175 9.39338C36.1615 9.23338 36.9508 9.15338 37.9855 9.15338ZM46.9763 15.8094L46.8963 19.9374C47.3549 19.9694 47.8136 20.044 48.2723 20.1614L48.2403 20.7214C48.0696 20.8067 47.7603 20.9027 47.3123 21.0094C46.8749 21.1054 46.4429 21.1534 46.0163 21.1534C45.8243 20.7694 45.7176 20.4014 45.6963 20.0494C44.4803 20.8494 43.6269 21.2494 43.1363 21.2494C42.3789 21.2494 41.7709 21.0467 41.3123 20.6414C40.8536 20.236 40.6243 19.6707 40.6243 18.9454C40.6243 17.2707 41.6483 16.4067 43.6963 16.3534C44.8909 16.3214 45.4936 16.3054 45.5043 16.3054L45.4883 15.7614C45.4669 15.0254 45.3283 14.4974 45.0723 14.1774C44.8163 13.8467 44.3576 13.6814 43.6963 13.6814C43.4189 13.6814 43.1203 13.7454 42.8003 13.8734L42.4163 15.4734C42.3629 15.484 42.2723 15.4894 42.1443 15.4894L41.4883 15.4414C41.3176 14.9827 41.2269 14.348 41.2163 13.5374C41.4189 13.4307 41.8829 13.2707 42.6083 13.0574C43.3336 12.8334 43.7976 12.7214 44.0003 12.7214C45.0883 12.7214 45.8563 12.9614 46.3043 13.4414C46.7523 13.9214 46.9763 14.7107 46.9763 15.8094ZM43.4883 20.1614C43.7976 20.1614 44.5123 19.8147 45.6323 19.1214L45.5523 17.1214C44.8269 17.1854 44.2189 17.244 43.7283 17.2974C43.2376 17.3507 42.8429 17.4947 42.5443 17.7294C42.2456 17.9534 42.0963 18.3107 42.0963 18.8014C42.0963 19.708 42.5603 20.1614 43.4883 20.1614ZM54.1613 12.7214C55.1853 12.7214 55.9266 12.9774 56.3853 13.4894C56.8439 13.9907 57.0733 14.7587 57.0733 15.7934C57.0733 16.092 57.0306 17.4787 56.9453 19.9534L58.2893 20.0814C58.2893 20.38 58.1986 20.7 58.0173 21.0414H54.3373L54.2893 20.4814C54.7799 20.3107 55.2599 20.1827 55.7293 20.0974C55.6653 17.3027 55.6066 15.7507 55.5533 15.4414C55.5106 15.1214 55.4359 14.844 55.3293 14.6094C55.2226 14.3747 55.0626 14.2094 54.8493 14.1134C54.6359 14.0174 54.3533 13.9694 54.0013 13.9694C53.2973 13.9694 52.6146 14.14 51.9533 14.4814C51.8893 16.9134 51.8466 18.7374 51.8253 19.9534L53.1693 20.0814C53.1693 20.38 53.0786 20.7 52.8973 21.0414H49.2173L49.1693 20.4814C49.6599 20.3107 50.1399 20.1827 50.6093 20.0974C50.5453 17.388 50.4919 15.3827 50.4493 14.0814C49.8626 14.0494 49.3933 13.9854 49.0413 13.8894L49.1053 13.0574C49.6813 12.8974 50.5186 12.8174 51.6173 12.8174C51.7453 13.0094 51.8413 13.2867 51.9053 13.6494C52.3639 13.404 52.8226 13.1907 53.2813 13.0094C53.7506 12.8174 54.0439 12.7214 54.1613 12.7214ZM60.2126 20.0494L60.0846 14.0174H58.8526L58.8046 13.4574C58.9113 13.3827 59.2206 13.244 59.7326 13.0414L61.0446 10.9934C61.258 11.0147 61.4233 11.068 61.5406 11.1534L61.5246 12.9134C62.3246 12.9134 62.9806 12.9667 63.4926 13.0734C63.4926 13.3614 63.402 13.676 63.2206 14.0174H61.4926C61.4713 15.2974 61.45 17.2387 61.4286 19.8414C62.026 19.8734 62.6233 19.98 63.2206 20.1614L63.2046 20.7214C63.0553 20.8174 62.6713 20.9294 62.0526 21.0574C61.4446 21.1854 60.9433 21.2494 60.5486 21.2494C60.4953 21.164 60.426 20.9827 60.3406 20.7054C60.2553 20.4174 60.2126 20.1987 60.2126 20.0494ZM65.9191 20.0174C66.2925 20.1774 66.7458 20.2574 67.2791 20.2574C67.8231 20.2574 68.2498 20.156 68.5591 19.9534C68.8685 19.7507 69.0231 19.4734 69.0231 19.1214C69.0231 18.7694 68.8791 18.476 68.5911 18.2414C68.3031 18.0067 67.9511 17.7987 67.5351 17.6174C67.1191 17.436 66.7031 17.244 66.2871 17.0414C65.8711 16.8387 65.5191 16.572 65.2311 16.2414C64.9431 15.9107 64.7991 15.5267 64.7991 15.0894C64.7991 14.3534 65.0445 13.7774 65.5351 13.3614C66.0258 12.9347 66.7031 12.7214 67.5671 12.7214C68.4418 12.7214 69.2631 12.9187 70.0311 13.3134C70.0418 13.42 70.0471 13.708 70.0471 14.1774C70.0471 14.636 69.9991 15.0307 69.9031 15.3614C69.6471 15.4467 69.3431 15.4894 68.9911 15.4894L68.4631 13.8574C68.2285 13.74 67.9085 13.6814 67.5031 13.6814C67.1085 13.6814 66.7938 13.788 66.5591 14.0014C66.3245 14.204 66.2071 14.4654 66.2071 14.7854C66.2071 15.0947 66.3511 15.3667 66.6391 15.6014C66.9378 15.836 67.2951 16.0494 67.7111 16.2414C68.1271 16.4227 68.5431 16.62 68.9591 16.8334C69.3751 17.036 69.7271 17.308 70.0151 17.6494C70.3138 17.98 70.4631 18.364 70.4631 18.8014C70.4631 19.5694 70.1645 20.172 69.5671 20.6094C68.9805 21.036 68.2551 21.2494 67.3911 21.2494C66.9218 21.2494 66.4205 21.1747 65.8871 21.0254C65.3538 20.8654 64.9058 20.6627 64.5431 20.4174C64.5431 19.7027 64.6071 19.068 64.7351 18.5134C64.9805 18.4707 65.3111 18.4494 65.7271 18.4494L65.9191 20.0174Z" fill="black"/>
</g>
<defs>
<filter id="filter0_d_2_6" x="0.499969" y="0.5" width="73.9632" height="29" filterUnits="userSpaceOnUse" color-interpolation-filters="sRGB">
<feFlood flood-opacity="0" result="BackgroundImageFix"/>
<feColorMatrix in="SourceAlpha" type="matrix" values="0 0 0 0 0 0 0 0 0 0 0 0 0 0 0 0 0 0 127 0" result="hardAlpha"/>
<feOffset dy="4"/>
<feGaussianBlur stdDeviation="2"/>
<feComposite in2="hardAlpha" operator="out"/>
<feColorMatrix type="matrix" values="0 0 0 0 0 0 0 0 0 0 0 0 0 0 0 0 0 0 0.25 0"/>
<feBlend mode="normal" in2="BackgroundImageFix" result="effect1_dropShadow_2_6"/>
<feBlend mode="normal" in="SourceGraphic" in2="effect1_dropShadow_2_6" result="shape"/>
</filter>
</defs>
</svg>
